# xmcd
#
# Track frame offsets:
#	150
#	11925
#	23325
#	35250
#	45675
#	56850
#	72225
#	83400
#	93750
#	102825
#	113700
#	125025
#
# Disc length: 1877 seconds
#
# Revision: 0
# Processed by: cddbd v1.5.2PL0 Copyright (c) Steve Scherf et al.
# Submitted via: EZCDAudioConverter 2.1.7.1
#
DISCID=9007530c
DTITLE=V/A - A John Waters Christmas
DYEAR=2004
DGENRE=
TTITLE0=Fat Daddy - Fat Daddy
TTITLE1=Tiny Tim - Rudolph The Red-Nosed Reindeer
TTITLE2=Stormy Weather - Christmas Time Is Coming (A Street Carol)
TTITLE3=Little Cindy - Happy Birthday Jesus (A Child's Prayer)
TTITLE4=Rudolph and Gang - Here Comes Fatty Claus
TTITLE5=Roger Christian - Little Mary Christmas
TTITLE6=Big Dee Irwin and Little Eva - I Wish You A Merry Christmas
TTITLE7=Jimmy Donley - Santa! Don't Pass Me By
TTITLE8=Alvin and The Chipmunks - Sleigh Ride
TTITLE9=Rita Faye Wilson - Sleigh Bells, Reindeer And Snow
TTITLE10=The Coctails - First Snowfall
TTITLE11=AKIM and The Teddy Vann Production Company - Santa Claus Is A Black Man
EXTD=
EXTT0=
EXTT1=
EXTT2=
EXTT3=
EXTT4=
EXTT5=
EXTT6=
EXTT7=
EXTT8=
EXTT9=
EXTT10=
EXTT11=
PLAYORDER=
